<svg width="47" height="47" viewBox="0 0 47 47" fill="none" xmlns="http://www.w3.org/2000/svg">
<path d="M9.79175 25.4583V6.85417C9.79175 6.392 9.79175 6.16092 9.93471 6.01796C10.0777 5.875 10.3087 5.875 10.7709 5.875H18.7922C19.1839 5.875 19.3797 5.875 19.556 5.9455C19.7322 6.01796 19.8713 6.15308 20.1533 6.42529L23.0673 9.24137C23.3493 9.51358 23.4903 9.64871 23.6665 9.72117C23.8428 9.79167 24.0386 9.79167 24.4303 9.79167H36.5622C37.038 9.79167 37.275 9.79167 37.3592 9.94442C37.4434 10.0972 37.3142 10.2969 37.0557 10.6964L31.6742 19.0546C31.5097 19.3131 31.4255 19.4404 31.4255 19.5853C31.4255 19.7283 31.5097 19.8595 31.6742 20.114L37.0557 28.4722C37.3142 28.8717 37.4415 29.0715 37.3592 29.2242C37.277 29.377 37.038 29.377 36.5622 29.377H24.4283C24.0367 29.377 23.8408 29.377 23.6646 29.3065C23.4883 29.234 23.3493 29.0989 23.0673 28.8267L20.1533 26.0106C19.8713 25.7384 19.7303 25.6032 19.554 25.5308C19.3778 25.4603 19.182 25.4603 18.7903 25.4603L9.79175 25.4583ZM9.79175 25.4583V37.2083Z" fill="#C4FFE9"/>
<path d="M9.79175 25.4583V6.85417C9.79175 6.392 9.79175 6.16092 9.93471 6.01796C10.0777 5.875 10.3087 5.875 10.7709 5.875H18.7922C19.1839 5.875 19.3797 5.875 19.556 5.9455C19.7322 6.01796 19.8713 6.15308 20.1533 6.42529L23.0673 9.24137C23.3493 9.51358 23.4903 9.64871 23.6665 9.72117C23.8428 9.79167 24.0386 9.79167 24.4303 9.79167H36.5622C37.038 9.79167 37.275 9.79167 37.3592 9.94442C37.4434 10.0972 37.3142 10.2969 37.0557 10.6964L31.6742 19.0546C31.5097 19.3131 31.4255 19.4404 31.4255 19.5853C31.4255 19.7283 31.5097 19.8595 31.6742 20.114L37.0557 28.4722C37.3142 28.8717 37.4415 29.0715 37.3592 29.2242C37.277 29.377 37.038 29.377 36.5622 29.377H24.4283C24.0367 29.377 23.8408 29.377 23.6646 29.3065C23.4883 29.234 23.3493 29.0989 23.0673 28.8267L20.1533 26.0106C19.8713 25.7384 19.7303 25.6032 19.554 25.5308C19.3778 25.4603 19.182 25.4603 18.7903 25.4603L9.79175 25.4583ZM9.79175 25.4583V37.2083" stroke="black" stroke-width="2" stroke-linecap="round"/>
</svg>
