<svg width="40" height="29" viewBox="0 0 40 29" fill="none" xmlns="http://www.w3.org/2000/svg">
<path fill-rule="evenodd" clip-rule="evenodd" d="M31.7452 2.00224L26.8185 3.54709L30.0987 12.5139C30.7081 12.3587 31.3448 12.2763 32 12.2763C36.4183 12.2763 40 16.02 40 20.6382C40 25.2563 36.4183 29 32 29C27.5817 29 24 25.2563 24 20.6382C24 17.4446 25.7128 14.6692 28.2307 13.2608L26.583 8.75672L20.901 21.0916C20.7343 21.4534 20.3842 21.6834 20 21.6834H15.9381C15.446 25.8082 12.0796 29 8 29C3.58172 29 0 25.2563 0 20.6382C0 16.02 3.58172 12.2763 8 12.2763C12.0796 12.2763 15.446 15.4681 15.9381 19.5929H18.4381L13.5583 5.31123C13.5186 5.1951 13.4997 5.07637 13.4997 4.95972H12C11.4477 4.95972 11 4.49177 11 3.91449C11 3.33721 11.4477 2.86926 12 2.86926H16.5C17.0523 2.86926 17.5 3.33721 17.5 3.91449C17.5 4.49177 17.0523 4.95972 16.5 4.95972H15.5619L17.4038 10.3504L25.5306 5.87973L24.5659 3.24262C24.4667 2.97117 24.48 2.66878 24.6026 2.408C24.7253 2.14732 24.9464 1.95165 25.2127 1.86814L31.1705 0L31.7452 2.00224ZM18.0833 12.3389L20.055 18.1094L24.2846 8.92752L18.0833 12.3389ZM31.0659 21.0115L28.9527 15.2346C27.1854 16.3259 26 18.3373 26 20.6382C26 24.1017 28.6863 26.9095 32 26.9095C35.3137 26.9095 38 24.1017 38 20.6382C38 17.1746 35.3137 14.3668 32 14.3668C31.5964 14.3668 31.202 14.4085 30.8208 14.4878L32.9341 20.2649C33.1313 20.8041 32.873 21.4084 32.3571 21.6145C31.8413 21.8207 31.2632 21.5508 31.0659 21.0115ZM13.917 19.5929H8C7.4477 19.5929 7 20.0609 7 20.6382C7 21.2154 7.4477 21.6834 8 21.6834H13.917C13.441 24.6494 10.973 26.9095 8 26.9095C4.68629 26.9095 2 24.1017 2 20.6382C2 17.1746 4.68629 14.3668 8 14.3668C10.973 14.3668 13.441 16.6269 13.917 19.5929Z" fill="#333333"/>
</svg>
